<?xml version="1.0" standalone="no"?>
<!DOCTYPE svg PUBLIC "-//W3C//DTD SVG 20010904//EN"
 "http://www.w3.org/TR/2001/REC-SVG-20010904/DTD/svg10.dtd">
<svg version="1.0" xmlns="http://www.w3.org/2000/svg"
 width="1280.000000pt" height="998.000000pt" viewBox="0 0 1280.000000 998.000000"
 preserveAspectRatio="xMidYMid meet">

<g transform="translate(0.000000,998.000000) scale(0.100000,-0.100000)"
fill="#000000" stroke="none">
<path d="M6910 8643 c-35 -13 -72 -47 -90 -84 l-20 -39 -291 0 -290 0 -381
-200 -382 -200 -131 0 -130 1 -20 42 c-49 102 -202 118 -278 28 -125 -150 47
-355 220 -262 24 12 66 64 76 94 6 15 22 17 148 17 l142 0 383 200 383 200
275 0 276 0 20 -39 c27 -55 72 -84 137 -89 64 -5 103 9 143 54 100 114 23 286
-127 283 -26 0 -55 -3 -63 -6z m109 -88 c32 -16 41 -33 41 -78 -1 -76 -88
-113 -147 -63 -22 19 -28 32 -28 66 0 73 67 110 134 75z m-1950 -400 c56 -29
63 -106 14 -145 -90 -71 -195 50 -114 131 33 32 58 36 100 14z"/>
<path d="M7835 8506 c-34 -15 -80 -64 -90 -96 -6 -19 -15 -20 -149 -20 -109 0
-146 -3 -155 -14 -8 -10 -10 -247 -9 -877 l3 -864 573 -3 572 -2 -2 -798 -3
-797 -112 -3 c-106 -3 -112 -2 -118 19 -4 12 -22 38 -41 59 -111 122 -304 36
-292 -130 5 -69 35 -115 92 -141 95 -43 205 0 239 94 6 15 22 17 150 17 98 0
147 4 155 12 17 17 17 1719 0 1736 -9 9 -150 12 -575 12 l-563 0 0 795 0 795
113 0 112 0 20 -37 c42 -78 137 -111 217 -75 110 48 142 181 65 269 -53 60
-133 79 -202 49z m109 -80 c41 -17 62 -68 47 -109 -22 -58 -103 -76 -146 -32
-43 42 -27 123 29 145 29 12 32 12 70 -4z m294 -3366 c46 -43 41 -109 -11
-141 -40 -25 -83 -19 -114 17 -27 29 -29 63 -8 104 17 33 27 38 76 39 22 1 43
-6 57 -19z"/>
<path d="M4516 8218 c-85 -18 -143 -99 -133 -186 l5 -47 -541 -382 c-508 -359
-542 -381 -561 -367 -109 76 -268 -7 -268 -141 0 -167 209 -239 310 -107 22
29 27 47 29 101 l1 66 541 383 540 382 33 -20 c39 -24 116 -27 156 -6 60 32
102 96 102 158 0 43 -36 114 -69 138 -38 26 -98 38 -145 28z m86 -89 c31 -17
50 -71 37 -108 -11 -31 -52 -61 -84 -61 -32 0 -73 30 -84 61 -12 36 5 90 36
108 24 14 69 14 95 0z m-1351 -978 c54 -54 25 -135 -53 -148 -32 -5 -41 -1
-68 25 -40 41 -41 83 -1 123 20 20 39 29 61 29 22 0 41 -9 61 -29z"/>
<path d="M6964 8101 c-41 -19 -78 -57 -89 -92 -6 -18 -21 -19 -408 -19 -348 0
-406 -2 -425 -16 -21 -15 -22 -20 -22 -200 l0 -184 -380 0 -380 0 -14 33 c-27
64 -83 97 -165 97 -92 0 -161 -73 -161 -170 0 -116 93 -189 214 -166 44 8 94
50 112 93 l14 33 418 2 417 3 3 193 2 192 385 0 c332 0 385 -2 385 -15 0 -22
61 -86 97 -101 99 -42 219 25 239 133 15 78 -43 170 -121 192 -54 15 -73 14
-121 -8z m130 -92 c37 -29 37 -95 1 -129 -57 -54 -145 -15 -145 64 0 78 81
115 144 65z m-1943 -398 c20 -20 29 -39 29 -61 0 -22 -9 -41 -29 -61 -20 -20
-39 -29 -61 -29 -43 0 -90 47 -90 90 0 43 47 90 90 90 22 0 41 -9 61 -29z"/>
<path d="M8302 8093 c-18 -9 -45 -32 -60 -51 -23 -30 -27 -45 -27 -103 0 -75
16 -106 75 -146 39 -27 125 -31 169 -8 33 16 77 65 86 95 6 19 15 20 130 20
l123 0 506 -637 506 -638 0 -128 c0 -112 -2 -128 -17 -134 -64 -23 -113 -94
-113 -163 0 -50 32 -113 71 -140 43 -31 132 -39 177 -16 111 58 132 198 42
280 -21 19 -47 37 -59 41 -20 6 -21 13 -21 150 l0 144 -506 638 c-278 351
-515 648 -527 661 -19 21 -28 22 -163 22 -134 0 -143 1 -149 20 -9 30 -53 79
-86 95 -37 20 -116 19 -157 -2z m139 -92 c60 -60 20 -151 -67 -151 -15 0 -38
13 -56 30 -26 27 -30 36 -25 68 13 78 94 107 148 53z m1458 -1726 c32 -16 41
-33 41 -78 -1 -76 -88 -113 -147 -63 -22 19 -28 32 -28 66 0 73 67 110 134 75z"/>
<path d="M4415 7696 c-65 -28 -113 -116 -100 -184 20 -109 118 -168 232 -139
31 8 33 7 212 -202 l182 -211 92 0 92 0 20 -37 c52 -97 180 -121 262 -50 108
95 72 257 -66 298 -74 22 -158 -14 -196 -84 l-20 -37 -75 0 -76 0 -168 195
-167 194 10 38 c16 58 13 96 -12 143 -40 76 -142 111 -222 76z m115 -81 c31
-16 55 -70 44 -101 -24 -66 -102 -87 -149 -39 -33 32 -34 93 -2 122 39 36 65
40 107 18z m830 -550 c77 -81 -45 -201 -126 -124 -32 30 -33 93 -2 126 31 33
96 32 128 -2z"/>
<path d="M6352 7629 c-123 -62 -122 -248 1 -308 24 -12 59 -21 78 -21 68 1
139 50 162 113 6 15 23 17 175 17 l170 0 12 -30 c41 -99 185 -129 267 -57 108
95 72 257 -66 298 -74 22 -158 -14 -196 -84 l-20 -37 -167 0 -167 0 -17 36
c-38 80 -150 115 -232 73z m143 -94 c54 -54 16 -145 -60 -145 -48 0 -70 13
-85 49 -25 62 13 121 80 121 30 0 47 -7 65 -25z m675 0 c55 -58 15 -145 -66
-145 -52 0 -84 33 -84 87 0 75 98 113 150 58z"/>
<path d="M7895 7396 c-116 -52 -141 -209 -46 -289 88 -73 213 -52 266 46 l20
37 85 0 c47 0 163 -3 258 -7 146 -5 175 -9 179 -22 12 -35 57 -84 89 -97 134
-56 268 49 243 190 -14 78 -82 136 -161 136 -80 0 -127 -27 -162 -94 l-14 -29
-254 2 c-219 1 -254 4 -263 18 -5 8 -19 29 -30 47 -40 62 -142 92 -210 62z
m135 -104 c26 -32 25 -82 -1 -116 -16 -21 -29 -26 -63 -26 -54 0 -90 34 -90
85 0 82 104 121 154 57z m851 -11 c41 -41 40 -90 -2 -125 -41 -35 -83 -34
-120 3 -20 20 -29 39 -29 61 0 22 9 41 29 61 20 20 39 29 61 29 22 0 41 -9 61
-29z"/>
<path d="M3830 7288 c-162 -87 -89 -342 92 -325 60 5 119 44 142 91 l17 36
184 0 185 0 0 -425 0 -425 -264 0 -264 0 -12 30 c-26 63 -109 107 -182 97 -81
-11 -148 -88 -148 -170 0 -179 240 -240 325 -83 l20 36 283 0 c176 0 291 4
303 10 18 10 19 26 19 498 0 289 -4 493 -10 502 -8 12 -46 16 -224 18 l-216 3
-16 35 c-39 81 -151 116 -234 72z m140 -86 c13 -10 23 -33 27 -59 7 -56 -27
-93 -85 -93 -60 0 -87 27 -87 85 0 37 5 51 24 66 30 24 92 25 121 1z m-152
-949 c51 -56 12 -143 -66 -143 -93 0 -123 129 -38 166 39 16 75 9 104 -23z"/>
<path d="M5735 7186 c-42 -18 -93 -79 -101 -121 -24 -129 91 -239 215 -205 49
13 94 50 111 90 l12 30 544 0 544 0 0 -398 c0 -374 1 -400 18 -415 16 -15 45
-17 194 -17 l176 0 12 -30 c26 -63 114 -109 183 -96 52 10 99 46 125 96 28 56
28 94 0 150 -37 73 -114 111 -194 96 -41 -8 -112 -68 -120 -102 -6 -24 -7 -24
-155 -24 l-149 0 0 398 c0 374 -1 400 -18 415 -17 15 -72 17 -589 17 l-571 0
-12 29 c-34 83 -140 124 -225 87z m133 -98 c31 -30 30 -91 -3 -123 -46 -47
-136 -21 -148 41 -17 90 83 144 151 82z m1810 -831 c29 -27 30 -84 1 -121 -16
-20 -29 -26 -62 -26 -57 0 -87 30 -87 85 0 83 85 119 148 62z"/>
<path d="M9050 6829 c-33 -13 -68 -47 -86 -81 -18 -35 -18 -121 1 -157 16 -33
65 -77 95 -86 19 -6 20 -15 20 -334 l0 -327 155 -167 c85 -91 155 -168 155
-171 0 -3 -37 -6 -83 -6 l-83 0 -18 40 c-20 46 -55 74 -111 89 -145 38 -263
-113 -193 -249 64 -125 255 -118 308 11 l12 29 142 0 c147 0 166 5 166 43 0
11 -80 105 -185 218 l-185 199 0 309 0 309 30 12 c42 17 88 73 96 115 15 79
-9 144 -69 189 -31 23 -128 32 -167 15z m131 -98 c20 -20 29 -39 29 -61 0 -22
-9 -41 -29 -61 -20 -20 -39 -29 -61 -29 -22 0 -41 9 -61 29 -20 20 -29 39 -29
61 0 22 9 41 29 61 20 20 39 29 61 29 22 0 41 -9 61 -29z m-66 -1206 c36 -35
34 -88 -4 -126 -16 -16 -39 -29 -51 -29 -59 0 -108 59 -94 114 15 63 103 88
149 41z"/>
<path d="M4044 6770 c-48 -11 -91 -46 -110 -90 l-18 -40 -498 0 c-431 0 -498
2 -498 15 0 22 -61 86 -97 101 -143 60 -286 -81 -227 -224 56 -135 248 -142
314 -12 l20 40 493 0 493 0 17 -34 c58 -122 241 -126 304 -6 54 102 5 219
-105 250 -41 11 -44 11 -88 0z m-1245 -95 c33 -16 41 -33 41 -81 0 -48 -37
-84 -85 -84 -90 0 -120 125 -40 168 27 15 51 15 84 -3z m1348 -7 c45 -50 36
-115 -19 -144 -87 -45 -173 72 -103 141 32 33 93 34 122 3z"/>
<path d="M5977 6766 c-48 -18 -85 -51 -103 -93 l-14 -33 -399 0 -400 0 -23 42
c-57 104 -205 119 -281 29 -59 -71 -55 -170 10 -235 86 -86 240 -55 282 57
l11 27 402 0 403 -1 18 -39 c32 -70 130 -107 210 -81 71 24 127 122 112 194
-23 105 -131 168 -228 133z m-1023 -106 c32 -31 28 -96 -7 -126 -91 -78 -201
43 -117 128 27 26 36 30 67 25 20 -4 46 -16 57 -27z m1141 5 c48 -47 21 -135
-44 -150 -65 -14 -125 56 -102 118 22 58 103 76 146 32z"/>
<path d="M6565 6622 c-91 -44 -129 -136 -91 -225 15 -36 79 -97 101 -97 13 0
15 -100 17 -731 l3 -730 -33 -16 c-66 -31 -109 -114 -96 -184 26 -137 179
-191 286 -101 89 75 71 231 -32 279 l-39 18 -1 731 0 732 30 12 c63 26 108
114 94 185 -20 109 -142 173 -239 127z m130 -97 c66 -66 -3 -174 -92 -144 -39
13 -69 65 -57 102 20 68 101 91 149 42z m-26 -1776 c91 -32 66 -169 -31 -169
-96 0 -123 134 -34 170 28 12 28 12 65 -1z"/>
<path d="M2405 6358 c-33 -18 -66 -51 -82 -82 -20 -38 -20 -114 0 -153 18 -34
66 -78 97 -88 19 -6 20 -15 20 -130 l0 -124 -32 -17 c-72 -36 -99 -80 -99
-160 0 -151 174 -227 285 -125 87 79 68 231 -34 278 l-39 18 -1 126 0 125 34
17 c19 8 47 33 63 53 24 33 28 46 28 104 0 58 -4 71 -29 104 -16 21 -44 44
-62 52 -40 17 -121 18 -149 2z m137 -98 c26 -27 30 -36 25 -68 -12 -76 -88
-105 -146 -56 -42 35 -43 84 -2 125 40 40 82 39 123 -1z m-4 -584 c17 -11 34
-66 28 -91 -24 -97 -176 -81 -176 18 0 40 31 84 63 89 22 4 68 -5 85 -16z"/>
<path d="M2994 6351 c-69 -42 -103 -120 -84 -191 13 -48 59 -103 100 -120 l30
-12 0 -92 c0 -58 4 -96 12 -104 9 -9 142 -12 538 -12 l525 -1 18 -39 c55 -119
241 -120 304 -1 28 53 29 102 4 157 -27 59 -72 88 -146 92 -77 4 -129 -24
-159 -85 l-21 -42 -497 -1 -498 0 0 65 c0 62 1 66 27 76 131 49 137 252 10
313 -47 22 -124 21 -163 -3z m143 -85 c39 -34 39 -98 0 -132 -60 -52 -146 -13
-146 66 0 79 86 118 146 66z m1208 -341 c52 -51 18 -155 -50 -155 -33 0 -81
24 -89 45 -25 67 15 135 79 135 25 0 44 -8 60 -25z"/>
<path d="M8090 6350 c-57 -34 -85 -83 -85 -149 0 -69 27 -117 85 -150 l40 -22
0 -130 c0 -106 -3 -129 -15 -129 -27 0 -92 -73 -104 -118 -44 -163 140 -285
273 -181 58 46 81 134 52 202 -15 36 -79 97 -101 97 -12 0 -15 23 -15 130 0
115 2 131 18 137 63 23 112 94 112 163 0 50 -32 113 -71 141 -47 33 -140 38
-189 9z m132 -71 c11 -6 26 -26 34 -46 14 -31 13 -38 -3 -71 -28 -58 -97 -68
-143 -22 -23 23 -27 87 -7 112 28 36 80 48 119 27z m19 -615 c77 -82 -47 -198
-126 -119 -33 32 -34 93 -2 122 40 37 91 36 128 -3z"/>
<path d="M6107 6285 c-47 -16 -81 -47 -97 -86 l-12 -29 -587 0 c-515 0 -589
-2 -609 -16 -22 -15 -22 -17 -22 -300 l0 -284 -765 0 -765 0 -20 39 c-28 57
-72 84 -141 89 -107 8 -184 -62 -184 -168 0 -106 77 -176 184 -168 69 5 113
32 141 89 l20 39 800 0 c780 0 800 0 810 19 6 12 10 124 10 295 l0 276 564 0
c548 0 565 -1 571 -19 18 -57 96 -111 159 -111 149 0 232 181 133 289 -27 29
-93 61 -127 60 -14 0 -42 -6 -63 -14z m120 -97 c30 -33 36 -62 19 -101 -37
-90 -166 -58 -166 41 0 72 99 112 147 60z m-3113 -578 c15 -5 34 -26 43 -45
17 -35 17 -38 -2 -73 -46 -84 -165 -58 -165 36 0 71 56 108 124 82z"/>
<path d="M5144 5812 c-69 -44 -103 -121 -84 -192 12 -46 51 -95 91 -115 36
-19 122 -19 159 0 29 15 72 65 83 98 6 16 36 17 437 17 l430 0 0 -430 0 -430
-612 0 -613 1 -21 42 c-30 61 -82 89 -159 85 -74 -4 -119 -33 -146 -92 -54
-119 26 -245 155 -246 66 0 128 36 153 90 l18 39 641 1 c484 0 643 3 652 12
17 17 17 979 0 996 -9 9 -127 12 -470 12 l-457 0 -17 36 c-27 57 -76 88 -148
92 -47 2 -68 -1 -92 -16z m143 -86 c61 -53 21 -156 -61 -156 -79 0 -114 94
-57 151 37 36 79 38 118 5z m-362 -941 c32 -31 34 -96 5 -125 -46 -46 -115
-36 -143 22 -16 33 -16 40 -3 71 17 41 39 56 84 57 22 0 41 -8 57 -25z"/>
<path d="M6950 5809 c-20 -11 -47 -37 -60 -56 -54 -79 -20 -207 64 -247 l36
-17 0 -550 c0 -360 4 -557 10 -570 10 -18 28 -19 610 -19 l600 0 14 -32 c50
-119 219 -134 299 -27 39 53 39 145 0 197 -39 53 -70 67 -142 67 -58 0 -73 -4
-103 -27 -19 -15 -43 -43 -52 -62 l-17 -36 -564 0 -565 0 0 530 c0 496 1 531
18 537 63 23 111 94 112 164 0 52 -39 120 -86 146 -51 29 -126 30 -174 2z
m129 -74 c40 -20 55 -66 37 -110 -38 -90 -166 -65 -166 33 0 74 63 112 129 77z
m1362 -1284 c60 -61 21 -151 -66 -151 -33 0 -85 50 -85 82 0 53 45 98 98 98
13 0 37 -13 53 -29z"/>
<path d="M10155 5801 c-16 -4 -40 -13 -52 -19 -24 -13 -66 -65 -76 -94 -5 -14
-18 -18 -65 -18 -32 0 -63 -5 -70 -12 -9 -9 -12 -161 -12 -624 0 -595 -1 -613
-19 -619 -58 -18 -111 -96 -111 -162 0 -76 69 -154 147 -169 79 -15 169 43
193 123 23 76 -12 160 -83 198 l-37 20 -2 448 c-2 246 -3 507 -3 580 l0 132
26 3 c23 3 31 -4 50 -40 58 -104 206 -119 282 -29 54 64 56 152 6 222 -32 45
-116 74 -174 60z m100 -106 c36 -35 34 -88 -4 -126 -16 -16 -39 -29 -51 -29
-59 0 -108 59 -94 114 15 63 103 88 149 41z m-268 -1377 c31 -29 32 -92 1
-125 -31 -33 -96 -32 -127 1 -53 57 -15 146 63 146 27 0 47 -7 63 -22z"/>
<path d="M7505 5606 c-65 -28 -114 -121 -100 -189 11 -51 51 -104 92 -122 l38
-17 -3 -126 c-2 -70 -8 -128 -12 -130 -5 -2 -24 -13 -41 -25 -99 -66 -98 -218
0 -284 68 -46 149 -42 208 10 78 69 85 177 16 249 -14 14 -38 32 -54 38 l-29
12 0 129 c0 117 2 128 19 134 58 18 111 96 111 163 0 55 -38 122 -86 149 -45
26 -112 30 -159 9z m114 -81 c83 -42 49 -165 -46 -165 -80 0 -114 102 -52 154
35 30 58 32 98 11z m21 -610 c54 -57 13 -147 -66 -147 -49 0 -84 37 -84 88 0
76 98 115 150 59z"/>
<path d="M5749 5287 c-29 -16 -50 -36 -64 -64 l-20 -40 -550 -7 c-302 -3 -979
-7 -1502 -9 l-953 -2 -9 26 c-14 42 -66 85 -116 98 -57 14 -111 2 -156 -36
-88 -75 -75 -222 26 -281 82 -47 202 -12 242 72 l15 33 802 6 c440 4 1117 7
1504 7 610 0 702 -2 702 -15 0 -26 60 -83 105 -101 112 -42 230 43 228 167 -1
74 -35 124 -106 154 -51 21 -97 19 -148 -8z m149 -93 c51 -58 12 -144 -67
-144 -32 0 -44 6 -65 31 -14 17 -26 39 -26 49 0 35 24 73 55 86 39 17 74 10
103 -22z m-3343 -9 c71 -70 -16 -186 -105 -140 -54 28 -65 86 -24 134 34 41
92 44 129 6z"/>
<path d="M10471 5157 c-99 -31 -144 -157 -92 -254 12 -24 64 -66 94 -76 16 -6
17 -30 17 -315 l0 -308 -177 -257 -177 -257 -123 0 c-109 0 -124 2 -130 18
-36 103 -180 145 -268 78 -47 -36 -65 -74 -65 -138 0 -151 165 -228 281 -131
17 15 38 42 45 60 l14 32 147 3 148 3 192 275 192 275 0 327 1 327 42 23 c134
74 109 276 -40 318 -44 12 -56 11 -101 -3z m120 -106 c32 -33 36 -58 14 -100
-29 -56 -106 -63 -145 -14 -71 90 50 195 131 114z m-803 -1347 c29 -33 28 -75
-4 -113 -71 -85 -202 16 -138 107 34 48 102 51 142 6z"/>
<path d="M9367 5126 c-47 -17 -68 -36 -93 -81 l-19 -35 -138 0 c-76 0 -147 -5
-158 -10 -18 -10 -19 -24 -19 -259 l0 -249 -30 -12 c-42 -17 -88 -73 -96 -115
-22 -120 53 -215 171 -215 68 0 121 34 154 98 17 33 16 114 -3 149 -17 34 -66
78 -96 88 -19 6 -20 15 -20 221 l0 214 118 0 117 0 20 -37 c52 -97 180 -121
262 -50 100 88 80 232 -42 288 -47 22 -76 23 -128 5z m120 -98 c29 -33 35 -57
22 -95 -30 -93 -169 -65 -169 34 0 73 99 114 147 61z m-464 -630 c56 -29 64
-93 18 -139 -54 -54 -135 -25 -148 53 -5 32 -1 41 25 68 32 32 68 38 105 18z"/>
<path d="M2954 4802 c-58 -27 -87 -73 -92 -143 -8 -110 59 -184 168 -184 68 0
117 29 150 87 l21 38 545 0 544 0 0 -148 c0 -102 4 -152 12 -160 9 -9 152 -12
584 -12 l572 0 12 -29 c14 -36 56 -76 93 -90 124 -47 257 63 233 193 -30 160
-252 192 -326 46 l-20 -40 -540 0 -540 0 0 149 c0 123 -3 152 -16 165 -14 14
-80 16 -585 16 l-569 0 -19 39 c-40 77 -145 111 -227 73z m133 -88 c30 -19 39
-73 19 -112 -17 -34 -33 -42 -82 -42 -93 0 -117 128 -31 165 34 15 58 12 94
-11z m2595 -324 c48 -37 41 -118 -13 -145 -40 -21 -63 -19 -98 11 -89 74 21
206 111 134z"/>
<path d="M6121 4490 c-46 -11 -82 -39 -108 -86 -46 -80 -15 -189 65 -229 l41
-20 1 -97 0 -98 -267 0 c-148 0 -520 -3 -828 -6 l-560 -6 -18 41 c-33 74 -113
108 -200 86 -57 -14 -84 -37 -108 -90 -67 -145 78 -294 224 -231 37 16 82 61
92 94 l6 22 855 0 c841 0 854 0 874 20 18 18 20 33 20 144 0 122 0 124 24 130
34 8 83 68 96 117 34 125 -80 239 -209 209z m104 -105 c38 -37 35 -95 -6 -129
-35 -30 -58 -32 -99 -11 -35 18 -55 71 -41 108 22 58 103 76 146 32z m-1870
-410 c48 -47 25 -135 -40 -151 -60 -15 -120 45 -108 109 12 63 102 89 148 42z"/>
<path d="M9385 4484 c-84 -43 -121 -128 -92 -211 l14 -41 -101 -101 -101 -101
-1150 0 -1150 0 -20 36 c-42 78 -154 112 -232 71 -120 -63 -122 -241 -3 -304
92 -49 203 -13 240 78 l12 29 1167 0 1166 0 117 117 116 116 45 -12 c146 -41
269 118 195 251 -43 76 -149 111 -223 72z m110 -76 c29 -13 55 -55 55 -88 0
-36 -53 -80 -95 -80 -70 0 -110 80 -69 138 27 39 67 50 109 30z m-2800 -363
c36 -35 34 -88 -4 -126 -33 -32 -58 -36 -101 -14 -35 18 -55 71 -41 108 22 58
103 76 146 32z"/>
<path d="M8729 3751 c-74 -24 -119 -87 -119 -167 0 -61 25 -110 72 -141 85
-57 198 -31 246 55 l23 42 130 0 129 0 265 -171 265 -171 0 -124 0 -123 -38
-21 c-58 -33 -87 -82 -87 -149 0 -108 76 -177 184 -169 70 5 116 34 142 92 39
85 9 182 -68 224 l-43 23 0 137 c0 75 -4 143 -8 150 -5 7 -141 98 -303 202
l-294 190 -137 0 -137 0 -22 40 c-13 23 -37 50 -55 61 -36 22 -107 32 -145 20z
m111 -101 c46 -46 36 -115 -22 -143 -33 -16 -40 -17 -71 -3 -61 25 -77 92 -32
140 31 33 94 37 125 6z m992 -791 c11 -6 26 -26 34 -45 37 -89 -69 -165 -140
-99 -29 27 -36 88 -13 117 28 36 80 48 119 27z"/>
<path d="M8283 3725 c-26 -16 -48 -40 -60 -65 l-18 -39 -141 -1 c-107 0 -144
-3 -153 -14 -8 -9 -11 -120 -9 -387 l3 -374 198 -3 197 -2 0 -310 0 -310 -115
0 c-95 0 -115 3 -115 15 0 25 -69 93 -107 106 -85 28 -178 -15 -215 -99 -59
-132 63 -269 204 -231 45 12 118 77 118 104 0 13 24 15 143 15 127 0 146 2
160 18 15 17 17 58 17 380 0 314 -2 363 -16 376 -13 13 -46 16 -205 16 l-189
0 0 310 0 310 114 0 c110 0 114 -1 120 -22 7 -30 48 -74 88 -94 45 -23 134
-15 177 16 39 27 71 90 71 140 0 50 -32 113 -71 141 -51 36 -141 38 -196 4z
m152 -79 c35 -35 41 -69 18 -108 -32 -55 -98 -63 -143 -18 -23 23 -27 87 -7
112 34 43 96 50 132 14z m-491 -1390 c86 -36 58 -166 -36 -166 -96 0 -123 134
-34 170 29 12 32 12 70 -4z"/>
<path d="M6592 3698 c-47 -10 -108 -63 -118 -102 l-6 -24 -586 -6 c-323 -3
-622 -8 -665 -10 l-78 -4 -13 32 c-30 72 -126 118 -201 96 -56 -17 -90 -43
-110 -86 -21 -45 -21 -123 -1 -163 61 -116 241 -119 304 -5 l22 42 358 6 c196
3 495 9 663 12 l306 6 12 -30 c54 -129 242 -137 308 -13 73 138 -40 282 -195
249z m101 -98 c49 -39 42 -116 -14 -145 -40 -21 -63 -19 -98 11 -89 74 21 206
112 134z m-1659 -31 c41 -48 30 -106 -24 -134 -62 -32 -130 11 -130 82 0 80
102 114 154 52z"/>
<path d="M7465 3476 c-42 -18 -93 -79 -101 -121 -14 -78 25 -160 92 -192 l34
-17 0 -127 0 -127 -29 -12 c-56 -23 -101 -95 -101 -163 0 -85 85 -167 172
-167 177 0 241 235 89 322 l-41 23 0 125 0 125 37 20 c100 53 119 188 40 274
-45 48 -129 65 -192 37z m133 -98 c52 -50 12 -148 -60 -148 -67 0 -108 55 -87
117 20 62 96 77 147 31z m-3 -593 c38 -37 35 -95 -6 -129 -35 -30 -58 -32 -98
-11 -54 27 -61 108 -13 145 35 28 87 26 117 -5z"/>
<path d="M9074 3371 c-31 -19 -65 -60 -77 -93 -6 -16 -23 -18 -156 -18 -140 0
-151 -1 -161 -20 -7 -13 -10 -106 -10 -257 l1 -236 -28 -12 c-63 -27 -112
-121 -98 -188 18 -84 87 -139 175 -139 74 1 119 29 154 99 38 75 3 180 -71
221 l-43 23 0 215 0 214 114 0 115 0 23 -42 c57 -104 205 -119 281 -29 71 85
48 220 -47 265 -47 22 -133 21 -172 -3z m151 -86 c38 -37 35 -95 -6 -129 -35
-30 -58 -32 -98 -11 -34 17 -55 62 -45 99 15 63 103 88 149 41z m-466 -630
c83 -42 49 -165 -46 -165 -80 0 -114 102 -52 154 35 30 58 32 98 11z"/>
<path d="M6025 3336 c-65 -28 -114 -121 -100 -189 18 -85 84 -140 169 -140 78
0 124 29 160 101 l17 33 102 -3 101 -3 298 -644 297 -644 -29 -33 c-74 -85
-40 -218 68 -266 111 -50 237 33 236 157 0 92 -63 164 -152 173 l-47 4 -300
650 c-165 358 -306 659 -313 669 -12 17 -27 19 -140 19 l-127 1 -20 41 c-36
74 -141 109 -220 74z m114 -81 c83 -42 49 -165 -46 -165 -80 0 -114 102 -52
154 35 30 58 32 98 11z m1099 -1491 c51 -58 12 -144 -66 -144 -93 0 -123 128
-38 166 40 17 75 10 104 -22z"/>
<path d="M6877 3245 c-103 -36 -145 -141 -96 -241 24 -51 71 -83 135 -92 l45
-7 290 -662 290 -662 -22 -22 c-51 -51 -63 -139 -26 -203 27 -48 62 -75 113
-86 117 -27 230 79 208 195 -15 80 -87 145 -160 145 -25 0 -44 5 -44 11 0 6
-129 305 -286 664 l-286 654 26 31 c14 17 30 49 37 72 22 84 -35 184 -118 207
-48 14 -59 13 -106 -4z m118 -100 c47 -46 22 -134 -41 -149 -55 -14 -114 35
-114 94 0 12 13 35 29 51 38 38 91 40 126 4z m704 -1641 c25 -21 31 -33 31
-65 0 -102 -131 -124 -170 -29 -23 55 23 118 87 120 12 0 35 -12 52 -26z"/>
<path d="M9229 2787 c-18 -12 -44 -38 -57 -57 -20 -30 -23 -45 -20 -96 4 -72
35 -121 92 -148 l36 -17 0 -123 0 -122 -102 -72 -103 -72 -128 0 c-113 0 -128
2 -134 18 -34 94 -151 139 -243 92 -54 -27 -83 -72 -88 -137 -5 -64 9 -103 54
-143 45 -39 102 -54 154 -40 48 13 103 59 120 100 l12 30 143 0 142 0 109 76
c159 111 144 85 144 251 l0 143 28 11 c65 25 102 83 102 162 0 99 -70 167
-170 167 -43 0 -65 -6 -91 -23z m134 -68 c28 -13 47 -48 47 -85 0 -37 -51 -84
-90 -84 -43 0 -90 47 -90 90 0 22 9 41 29 61 31 31 64 36 104 18z m-645 -625
c50 -57 10 -143 -68 -143 -39 0 -61 13 -78 46 -50 93 75 177 146 97z"/>
</g>
</svg>
